<svg xmlns="http://www.w3.org/2000/svg" viewBox="0 0 1200 630" width="1200" height="630">
  <defs>
    <linearGradient id="bg" x1="0" y1="0" x2="1" y2="1">
      <stop offset="0%" stop-color="#0a0c0f"/>
      <stop offset="100%" stop-color="#111820"/>
    </linearGradient>
    <linearGradient id="bar1" x1="0" y1="0" x2="0" y2="1">
      <stop offset="0%" stop-color="#00d4aa" stop-opacity="0.4"/>
      <stop offset="100%" stop-color="#00d4aa" stop-opacity="0.15"/>
    </linearGradient>
    <linearGradient id="bar2" x1="0" y1="0" x2="0" y2="1">
      <stop offset="0%" stop-color="#00d4aa" stop-opacity="0.65"/>
      <stop offset="100%" stop-color="#00d4aa" stop-opacity="0.2"/>
    </linearGradient>
    <linearGradient id="bar3" x1="0" y1="0" x2="0" y2="1">
      <stop offset="0%" stop-color="#00d4aa"/>
      <stop offset="100%" stop-color="#00d4aa" stop-opacity="0.3"/>
    </linearGradient>
  </defs>

  <!-- Background -->
  <rect width="1200" height="630" fill="url(#bg)"/>

  <!-- Subtle grid lines -->
  <line x1="0" y1="157" x2="1200" y2="157" stroke="#1f2530" stroke-width="1"/>
  <line x1="0" y1="315" x2="1200" y2="315" stroke="#1f2530" stroke-width="1"/>
  <line x1="0" y1="472" x2="1200" y2="472" stroke="#1f2530" stroke-width="1"/>

  <!-- Chart bars (right side) -->
  <rect x="720" y="390" width="70" height="180" rx="4" fill="url(#bar1)"/>
  <rect x="820" y="300" width="70" height="270" rx="4" fill="url(#bar2)"/>
  <rect x="920" y="190" width="70" height="380" rx="4" fill="url(#bar3)"/>
  <rect x="1020" y="240" width="70" height="330" rx="4" fill="url(#bar2)"/>
  <rect x="1120" y="140" width="70" height="430" rx="4" fill="url(#bar3)"/>

  <!-- Trend line over bars -->
  <polyline
    points="755,380 855,285 955,175 1055,225 1155,125"
    fill="none"
    stroke="#0099ff"
    stroke-width="3"
    stroke-linecap="round"
    stroke-linejoin="round"
    opacity="0.9"/>
  <circle cx="755" cy="380" r="5" fill="#0099ff" opacity="0.9"/>
  <circle cx="855" cy="285" r="5" fill="#0099ff" opacity="0.9"/>
  <circle cx="955" cy="175" r="5" fill="#0099ff" opacity="0.9"/>
  <circle cx="1055" cy="225" r="5" fill="#0099ff" opacity="0.9"/>
  <circle cx="1155" cy="125" r="6" fill="#0099ff"/>

  <!-- Left content -->
  <!-- Monospace prefix tag -->
  <text x="80" y="200" font-family="monospace" font-size="18" fill="#00d4aa" opacity="0.7" letter-spacing="3">//</text>

  <!-- Main title -->
  <text x="80" y="310" font-family="monospace" font-size="72" font-weight="600" fill="#e8eaf0" letter-spacing="-1">RUNNING THE</text>
  <text x="80" y="400" font-family="monospace" font-size="72" font-weight="600" fill="#00d4aa" letter-spacing="-1">NUMBERS</text>

  <!-- Subtitle -->
  <text x="82" y="460" font-family="monospace" font-size="22" fill="#8b95a8" letter-spacing="1">Personal Financial Model</text>

  <!-- Divider -->
  <line x1="80" y1="500" x2="620" y2="500" stroke="#1f2530" stroke-width="1"/>

  <!-- Stat pills -->
  <rect x="80" y="520" width="160" height="40" rx="4" fill="#111418" stroke="#1f2530" stroke-width="1"/>
  <text x="160" y="546" font-family="monospace" font-size="13" fill="#8b95a8" text-anchor="middle" letter-spacing="1">MORTGAGE</text>

  <rect x="256" y="520" width="160" height="40" rx="4" fill="#111418" stroke="#1f2530" stroke-width="1"/>
  <text x="336" y="546" font-family="monospace" font-size="13" fill="#8b95a8" text-anchor="middle" letter-spacing="1">CASH FLOW</text>

  <rect x="432" y="520" width="160" height="40" rx="4" fill="#111418" stroke="#1f2530" stroke-width="1"/>
  <text x="512" y="546" font-family="monospace" font-size="13" fill="#8b95a8" text-anchor="middle" letter-spacing="1">RENOVATION</text>
</svg>
